<svg width="136" height="37" viewBox="0 0 136 37" fill="none" xmlns="http://www.w3.org/2000/svg">
<path d="M136 3.07138V24.571V26.1067C136 27.803 134.625 29.1781 132.929 29.1781H120.118L111.915 36.7502C111.364 37.2584 110.486 36.7578 110.643 36.0251L112.44 27.6424H109.666C107.97 27.6424 106.595 26.2673 106.595 24.571V3.07138C106.595 1.3751 107.97 0 109.666 0H132.929C134.625 0 136 1.3751 136 3.07138Z" fill="#FDB237"/>
<path d="M119.697 18.9311H113.919L112.993 21.6658H109.045L114.647 6.18388H119.013L124.615 21.6658H120.623L119.697 18.9311ZM118.727 16.02L116.808 10.3521L114.911 16.02H118.727Z" fill="white"/>
<path d="M130.378 9.35966V21.6658H126.607V9.35966H130.378ZM131.062 6.29415L125.747 8.52161V5.91923L131.062 3.36096V6.29415Z" fill="white"/>
<path d="M11.7989 12.0209C11.7989 12.9178 11.5931 13.7411 11.1814 14.491C10.7697 15.2261 10.1375 15.8215 9.28476 16.2773C8.432 16.7331 7.37341 16.961 6.10897 16.961H3.77124V22.5186H0V7.03668H6.10897C7.344 7.03668 8.38789 7.24987 9.24065 7.67625C10.0934 8.10263 10.733 8.69074 11.1594 9.44057C11.5857 10.1904 11.7989 11.0505 11.7989 12.0209ZM5.82227 13.9617C6.5427 13.9617 7.07935 13.7926 7.43222 13.4544C7.78508 13.1162 7.96151 12.6384 7.96151 12.0209C7.96151 11.4034 7.78508 10.9255 7.43222 10.5874C7.07935 10.2492 6.5427 10.0801 5.82227 10.0801H3.77124V13.9617H5.82227Z" fill="#252960"/>
<path d="M25.3627 16.1671C25.3627 16.5199 25.3406 16.8875 25.2965 17.2698H16.7616C16.8204 18.0343 17.063 18.6224 17.4894 19.0341C17.9305 19.4311 18.4671 19.6295 19.0993 19.6295C20.0403 19.6295 20.6946 19.2326 21.0621 18.4386H25.076C24.8701 19.2473 24.4952 19.9751 23.9512 20.622C23.4219 21.2689 22.753 21.7761 21.9443 22.1437C21.1357 22.5113 20.2314 22.6951 19.2317 22.6951C18.026 22.6951 16.9527 22.4378 16.0118 21.9232C15.0708 21.4086 14.3357 20.6734 13.8064 19.7178C13.2771 18.7621 13.0124 17.6447 13.0124 16.3655C13.0124 15.0864 13.2697 13.969 13.7843 13.0133C14.3136 12.0577 15.0487 11.3225 15.9897 10.8079C16.9307 10.2933 18.0113 10.036 19.2317 10.036C20.4226 10.036 21.4812 10.286 22.4074 10.7859C23.3337 11.2858 24.0541 11.9988 24.5687 12.9251C25.098 13.8514 25.3627 14.932 25.3627 16.1671ZM21.5032 15.1746C21.5032 14.5277 21.2827 14.0131 20.8416 13.6308C20.4005 13.2486 19.8492 13.0574 19.1875 13.0574C18.5553 13.0574 18.0187 13.2412 17.5776 13.6088C17.1512 13.9764 16.8866 14.4983 16.7837 15.1746H21.5032Z" fill="#252960"/>
<path d="M31.1234 12.2635C31.5645 11.5872 32.1159 11.0579 32.7775 10.6756C33.4391 10.2786 34.1743 10.0801 34.9829 10.0801V14.0719H33.9464C33.0054 14.0719 32.2997 14.2778 31.8292 14.6894C31.3587 15.0864 31.1234 15.7921 31.1234 16.8066V22.5186H27.3522V10.2125H31.1234V12.2635Z" fill="#252960"/>
<path d="M41.4609 10.036C42.3284 10.036 43.0856 10.2125 43.7325 10.5653C44.3941 10.9182 44.9014 11.3813 45.2542 11.9547V10.2125H49.0255V22.4966C49.0255 23.6287 48.7976 24.6505 48.3418 25.5621C47.9007 26.4884 47.217 27.2235 46.2908 27.7675C45.3792 28.3115 44.2397 28.5835 42.8724 28.5835C41.0493 28.5835 39.5716 28.1498 38.4395 27.2823C37.3074 26.4295 36.6605 25.268 36.4988 23.7978H40.2259C40.3435 24.2682 40.6229 24.6358 41.064 24.9005C41.505 25.1798 42.049 25.3195 42.696 25.3195C43.4752 25.3195 44.0927 25.0916 44.5485 24.6358C45.019 24.1947 45.2542 23.4817 45.2542 22.4966V20.7543C44.8867 21.3277 44.3794 21.7982 43.7325 22.1658C43.0856 22.5186 42.3284 22.6951 41.4609 22.6951C40.4464 22.6951 39.5275 22.4378 38.7042 21.9232C37.8808 21.3939 37.2266 20.6514 36.7414 19.6957C36.2709 18.7253 36.0356 17.6079 36.0356 16.3435C36.0356 15.0791 36.2709 13.969 36.7414 13.0133C37.2266 12.0577 37.8808 11.3225 38.7042 10.8079C39.5275 10.2933 40.4464 10.036 41.4609 10.036ZM45.2542 16.3655C45.2542 15.4246 44.9896 14.6821 44.4603 14.1381C43.9457 13.5941 43.3135 13.3221 42.5636 13.3221C41.8138 13.3221 41.1742 13.5941 40.6449 14.1381C40.1303 14.6674 39.873 15.4025 39.873 16.3435C39.873 17.2845 40.1303 18.0343 40.6449 18.593C41.1742 19.137 41.8138 19.409 42.5636 19.409C43.3135 19.409 43.9457 19.137 44.4603 18.593C44.9896 18.049 45.2542 17.3065 45.2542 16.3655Z" fill="#252960"/>
<path d="M63.9056 10.2125V22.5186H60.1343V20.8425C59.7521 21.3865 59.2301 21.8276 58.5685 22.1658C57.9216 22.4892 57.2012 22.651 56.4072 22.651C55.4662 22.651 54.6355 22.4451 53.9151 22.0334C53.1947 21.6071 52.636 20.9969 52.239 20.203C51.842 19.409 51.6435 18.4754 51.6435 17.4021V10.2125H55.3927V16.8948C55.3927 17.7182 55.6059 18.3578 56.0323 18.8135C56.4587 19.2693 57.0321 19.4972 57.7525 19.4972C58.4876 19.4972 59.0684 19.2693 59.4948 18.8135C59.9212 18.3578 60.1343 17.7182 60.1343 16.8948V10.2125H63.9056Z" fill="#252960"/>
<path d="M74.1128 10.0801C75.5537 10.0801 76.7005 10.5506 77.5533 11.4916C78.4207 12.4179 78.8544 13.697 78.8544 15.329V22.5186H75.1053V15.8362C75.1053 15.0129 74.8921 14.3733 74.4657 13.9175C74.0393 13.4618 73.4659 13.2339 72.7455 13.2339C72.025 13.2339 71.4516 13.4618 71.0253 13.9175C70.5989 14.3733 70.3857 15.0129 70.3857 15.8362V22.5186H66.6144V10.2125H70.3857V11.8445C70.768 11.3005 71.2825 10.8741 71.9295 10.5653C72.5764 10.2419 73.3042 10.0801 74.1128 10.0801Z" fill="#252960"/>
<path d="M88.3339 19.3208V22.5186H86.4152C85.0478 22.5186 83.9819 22.1878 83.2174 21.5262C82.4528 20.8499 82.0705 19.7545 82.0705 18.2401V13.3441H80.5709V10.2125H82.0705V7.21312H85.8418V10.2125H88.3118V13.3441H85.8418V18.2843C85.8418 18.6518 85.93 18.9165 86.1064 19.0782C86.2829 19.2399 86.5769 19.3208 86.9886 19.3208H88.3339Z" fill="#252960"/>
<path d="M89.6847 16.3435C89.6847 15.0791 89.92 13.969 90.3904 13.0133C90.8756 12.0577 91.5299 11.3225 92.3532 10.8079C93.1766 10.2933 94.0955 10.036 95.11 10.036C95.9775 10.036 96.7347 10.2125 97.3816 10.5653C98.0432 10.9182 98.5504 11.3813 98.9033 11.9547V10.2125H102.675V22.5186H98.9033V20.7764C98.5357 21.3498 98.0211 21.8129 97.3595 22.1658C96.7126 22.5186 95.9554 22.6951 95.088 22.6951C94.0882 22.6951 93.1766 22.4378 92.3532 21.9232C91.5299 21.3939 90.8756 20.6514 90.3904 19.6957C89.92 18.7253 89.6847 17.6079 89.6847 16.3435ZM98.9033 16.3655C98.9033 15.4246 98.6386 14.6821 98.1094 14.1381C97.5948 13.5941 96.9625 13.3221 96.2127 13.3221C95.4629 13.3221 94.8233 13.5941 94.294 14.1381C93.7794 14.6674 93.5221 15.4025 93.5221 16.3435C93.5221 17.2845 93.7794 18.0343 94.294 18.593C94.8233 19.137 95.4629 19.409 96.2127 19.409C96.9625 19.409 97.5948 19.137 98.1094 18.593C98.6386 18.049 98.9033 17.3065 98.9033 16.3655Z" fill="#252960"/>
</svg>
