<svg width="277" height="75" viewBox="0 0 277 75" fill="none" xmlns="http://www.w3.org/2000/svg">
<path d="M276.417 6.23302V49.8642V52.9807C276.417 56.4231 273.626 59.2137 270.184 59.2137H244.186L227.539 74.5805C226.422 75.612 224.64 74.5959 224.958 73.109L228.604 56.0972H222.975C219.532 56.0972 216.742 53.3066 216.742 49.8642V6.23302C216.742 2.79062 219.532 0 222.975 0H270.184C273.626 0 276.417 2.79062 276.417 6.23302Z" fill="#FDB237"/>
<path d="M243.332 38.4187H231.606L229.726 43.9685H221.715L233.083 12.5495H241.945L253.313 43.9685H245.212L243.332 38.4187ZM241.363 32.5109L237.469 21.0085L233.62 32.5109H241.363Z" fill="white"/>
<path d="M265.008 18.9945V43.9685H257.354V18.9945H265.008ZM266.395 12.7733L255.609 17.2937V12.0125L266.395 6.82074V12.7733Z" fill="white"/>
<path d="M24.3644 24.3951C24.3644 26.2152 23.9466 27.8861 23.1112 29.4078C22.2757 30.8997 20.9927 32.1081 19.2621 33.033C17.5316 33.958 15.3833 34.4205 12.8172 34.4205H8.07307V45.6991H0.419739V14.2802H12.8172C15.3236 14.2802 17.4421 14.7128 19.1726 15.5781C20.9032 16.4434 22.2011 17.6369 23.0664 19.1586C23.9317 20.6803 24.3644 22.4258 24.3644 24.3951ZM12.2354 28.3336C13.6974 28.3336 14.7865 27.9905 15.5026 27.3042C16.2187 26.618 16.5768 25.6483 16.5768 24.3951C16.5768 23.1419 16.2187 22.1722 15.5026 21.4859C14.7865 20.7997 13.6974 20.4565 12.2354 20.4565H8.07307V28.3336H12.2354Z" fill="white"/>
<path d="M51.8905 32.8093C51.8905 33.5254 51.8458 34.2713 51.7563 35.0471H34.4356C34.5549 36.5986 35.0472 37.7921 35.9125 38.6276C36.8077 39.4332 37.8967 39.836 39.1797 39.836C41.0894 39.836 42.4171 39.0304 43.1631 37.4192H51.3087C50.891 39.0602 50.1301 40.5372 49.0261 41.85C47.952 43.1629 46.5944 44.1923 44.9533 44.9382C43.3123 45.6842 41.4772 46.0571 39.4483 46.0571C37.0016 46.0571 34.8235 45.535 32.9139 44.4907C31.0043 43.4463 29.5124 41.9545 28.4382 40.015C27.3641 38.0756 26.827 35.8079 26.827 33.2121C26.827 30.6162 27.3492 28.3485 28.3935 26.4091C29.4676 24.4697 30.9595 22.9778 32.8691 21.9335C34.7787 20.8892 36.9718 20.367 39.4483 20.367C41.8651 20.367 44.0134 20.8742 45.8932 21.8887C47.773 22.9032 49.235 24.3503 50.2793 26.2301C51.3535 28.1098 51.8905 30.3029 51.8905 32.8093ZM44.0582 30.7952C44.0582 29.4824 43.6106 28.4381 42.7155 27.6623C41.8204 26.8865 40.7015 26.4986 39.3588 26.4986C38.0758 26.4986 36.9867 26.8716 36.0916 27.6175C35.2263 28.3635 34.6892 29.4227 34.4803 30.7952H44.0582Z" fill="white"/>
<path d="M63.5814 24.8874C64.4765 23.5149 65.5954 22.4407 66.9381 21.6649C68.2808 20.8593 69.7727 20.4565 71.4137 20.4565V28.5574H69.3102C67.4006 28.5574 65.9684 28.9751 65.0136 29.8106C64.0588 30.6162 63.5814 32.0484 63.5814 34.1072V45.6991H55.928V20.7251H63.5814V24.8874Z" fill="white"/>
<path d="M84.5602 20.367C86.3206 20.367 87.8572 20.7251 89.1701 21.4412C90.5128 22.1573 91.5422 23.0971 92.2583 24.2608V20.7251H99.9116V45.6543C99.9116 47.9518 99.4491 50.0255 98.5242 51.8754C97.629 53.7552 96.2416 55.2471 94.3618 56.3511C92.5119 57.4551 90.1995 58.0071 87.4246 58.0071C83.7247 58.0071 80.7261 57.1269 78.4286 55.3664C76.1311 53.6359 74.8182 51.2787 74.49 48.2949H82.0538C82.2925 49.2497 82.8595 49.9957 83.7546 50.5328C84.6497 51.0997 85.7537 51.3831 87.0665 51.3831C88.6479 51.3831 89.9011 50.9206 90.8261 49.9957C91.7809 49.1006 92.2583 47.6534 92.2583 45.6543V42.1186C91.5123 43.2822 90.4829 44.237 89.1701 44.983C87.8572 45.6991 86.3206 46.0571 84.5602 46.0571C82.5014 46.0571 80.6366 45.535 78.9657 44.4907C77.2948 43.4165 75.967 41.9097 74.9823 39.9703C74.0275 38.001 73.5501 35.7333 73.5501 33.1673C73.5501 30.6013 74.0275 28.3485 74.9823 26.4091C75.967 24.4697 77.2948 22.9778 78.9657 21.9335C80.6366 20.8892 82.5014 20.367 84.5602 20.367ZM92.2583 33.2121C92.2583 31.3025 91.7212 29.7957 90.647 28.6917C89.6027 27.5877 88.3197 27.0357 86.798 27.0357C85.2763 27.0357 83.9784 27.5877 82.9042 28.6917C81.8599 29.7658 81.3377 31.2577 81.3377 33.1673C81.3377 35.0769 81.8599 36.5986 82.9042 37.7325C83.9784 38.8364 85.2763 39.3884 86.798 39.3884C88.3197 39.3884 89.6027 38.8364 90.647 37.7325C91.7212 36.6285 92.2583 35.1217 92.2583 33.2121Z" fill="white"/>
<path d="M130.109 20.7251V45.6991H122.456V42.2976C121.68 43.4016 120.621 44.2967 119.278 44.983C117.965 45.6394 116.503 45.9676 114.892 45.9676C112.982 45.9676 111.297 45.5499 109.835 44.7144C108.373 43.8491 107.239 42.6109 106.433 40.9997C105.627 39.3884 105.225 37.4938 105.225 35.3156V20.7251H112.833V34.2862C112.833 35.9571 113.266 37.2551 114.131 38.18C114.996 39.105 116.16 39.5675 117.622 39.5675C119.114 39.5675 120.293 39.105 121.158 38.18C122.023 37.2551 122.456 35.9571 122.456 34.2862V20.7251H130.109Z" fill="white"/>
<path d="M150.824 20.4565C153.748 20.4565 156.075 21.4113 157.806 23.3209C159.566 25.2007 160.446 27.7966 160.446 31.1085V45.6991H152.838V32.1379C152.838 30.467 152.405 29.1691 151.54 28.2441C150.674 27.3192 149.511 26.8567 148.049 26.8567C146.587 26.8567 145.423 27.3192 144.558 28.2441C143.692 29.1691 143.26 30.467 143.26 32.1379V45.6991H135.607V20.7251H143.26V24.037C144.036 22.933 145.08 22.0677 146.393 21.4412C147.706 20.7847 149.183 20.4565 150.824 20.4565Z" fill="white"/>
<path d="M179.684 39.2094V45.6991H175.79C173.015 45.6991 170.852 45.0277 169.3 43.685C167.749 42.3125 166.973 40.0896 166.973 37.0163V27.0805H163.93V20.7251H166.973V14.6382H174.626V20.7251H179.639V27.0805H174.626V37.1059C174.626 37.8518 174.805 38.3889 175.163 38.7171C175.521 39.0453 176.118 39.2094 176.954 39.2094H179.684Z" fill="white"/>
<path d="M182.425 33.1673C182.425 30.6013 182.903 28.3485 183.857 26.4091C184.842 24.4697 186.17 22.9778 187.841 21.9335C189.512 20.8892 191.376 20.367 193.435 20.367C195.196 20.367 196.732 20.7251 198.045 21.4412C199.388 22.1573 200.417 23.0971 201.133 24.2608V20.7251H208.787V45.6991H201.133V42.1633C200.387 43.327 199.343 44.2669 198 44.983C196.687 45.6991 195.151 46.0571 193.39 46.0571C191.361 46.0571 189.512 45.535 187.841 44.4907C186.17 43.4165 184.842 41.9097 183.857 39.9703C182.903 38.001 182.425 35.7333 182.425 33.1673ZM201.133 33.2121C201.133 31.3025 200.596 29.7957 199.522 28.6917C198.478 27.5877 197.195 27.0357 195.673 27.0357C194.151 27.0357 192.853 27.5877 191.779 28.6917C190.735 29.7658 190.213 31.2577 190.213 33.1673C190.213 35.0769 190.735 36.5986 191.779 37.7325C192.853 38.8364 194.151 39.3884 195.673 39.3884C197.195 39.3884 198.478 38.8364 199.522 37.7325C200.596 36.6285 201.133 35.1217 201.133 33.2121Z" fill="white"/>
</svg>
